<svg width="315" height="233" viewBox="0 0 315 233" fill="none" xmlns="http://www.w3.org/2000/svg">
<path d="M15.7203 232.189H299.204C310.64 232.189 318.133 220.192 313.139 209.878L255.775 91.4117C251.187 81.9381 238.724 79.6923 231.133 86.9714L188.027 128.306C181.256 134.799 170.331 133.826 164.807 126.238L106.74 46.4652C99.8639 37.0184 85.433 38.2934 80.3109 48.8004L1.80352 209.841C-3.22564 220.158 4.26668 232.189 15.7203 232.189Z" fill="white"/>
<path d="M209.317 25.6565C209.317 39.3785 198.221 50.5025 184.533 50.5025C170.845 50.5025 159.749 39.3785 159.749 25.6565C159.749 11.9345 170.845 0.810547 184.533 0.810547C198.221 0.810547 209.317 11.9345 209.317 25.6565Z" fill="white"/>
</svg>
